<?xml version="1.0" encoding="UTF-8" standalone="no"?>
<!-- Created with Inkscape (http://www.inkscape.org/) -->

<svg
   xmlns:dc="http://purl.org/dc/elements/1.1/"
   xmlns:cc="http://creativecommons.org/ns#"
   xmlns:rdf="http://www.w3.org/1999/02/22-rdf-syntax-ns#"
   xmlns:svg="http://www.w3.org/2000/svg"
   xmlns="http://www.w3.org/2000/svg"
   xmlns:sodipodi="http://sodipodi.sourceforge.net/DTD/sodipodi-0.dtd"
   xmlns:inkscape="http://www.inkscape.org/namespaces/inkscape"
   width="45.678814mm"
   height="18.662401mm"
   viewBox="0 0 161.85406 66.12662"
   id="svg4361"
   version="1.1"
   inkscape:version="0.91 r13725"
   sodipodi:docname="logo_gray_med.svg">
  <defs
     id="defs4363" />
  <sodipodi:namedview
     id="base"
     pagecolor="#ffffff"
     bordercolor="#666666"
     borderopacity="1.0"
     inkscape:pageopacity="0.0"
     inkscape:pageshadow="2"
     inkscape:zoom="3.959798"
     inkscape:cx="108.59667"
     inkscape:cy="95.224552"
     inkscape:document-units="px"
     inkscape:current-layer="layer1"
     showgrid="false"
     fit-margin-top="0"
     fit-margin-left="0"
     fit-margin-right="0"
     fit-margin-bottom="0"
     inkscape:window-width="1863"
     inkscape:window-height="1059"
     inkscape:window-x="57"
     inkscape:window-y="21"
     inkscape:window-maximized="1" />
  <metadata
     id="metadata4366">
    <rdf:RDF>
      <cc:Work
         rdf:about="">
        <dc:format>image/svg+xml</dc:format>
        <dc:type
           rdf:resource="http://purl.org/dc/dcmitype/StillImage" />
        <dc:title></dc:title>
      </cc:Work>
    </rdf:RDF>
  </metadata>
  <g
     inkscape:label="Layer 1"
     inkscape:groupmode="layer"
     id="layer1"
     transform="translate(-90.748489,-141.3749)">
    <path
       inkscape:transform-center-y="0.43136745"
       inkscape:transform-center-x="1.7092076"
       inkscape:connector-curvature="0"
       d="m 135.03662,150.88661 c 4.27988,1.48682 7.96598,4.33021 10.65844,8.22399 l 1.51042,-1.18653 c -2.92588,-4.23102 -6.93398,-7.32056 -11.58811,-8.93764 l -0.58075,1.90018 z"
       id="path4911"
       style="fill:#e6e6e6;fill-opacity:1;stroke:#e6e6e6;stroke-width:1;stroke-opacity:1" />
    <path
       inkscape:connector-curvature="0"
       d="m 131.96089,150.14925 c 0.58213,0.0883 1.16962,0.20304 1.7459,0.34265 l 0.37128,-1.90741 c -0.62607,-0.1521 -1.26542,-0.27766 -1.89696,-0.37342 l -0.22022,1.93818 z"
       id="path4913"
       style="fill:#e6e6e6;fill-opacity:1;stroke:#e6e6e6;stroke-width:1;stroke-opacity:1" />
    <path
       style="fill:#e6e6e6;fill-opacity:1;fill-rule:evenodd;stroke:none;stroke-width:0.95866686px;stroke-linecap:butt;stroke-linejoin:miter;stroke-opacity:1"
       d="m 134.22495,183.76857 c 17.18242,-4.49532 17.51934,-7.06417 17.51934,-7.06417"
       id="path4917"
       inkscape:connector-curvature="0" />
    <path
       inkscape:transform-center-y="0.5143068"
       inkscape:transform-center-x="1.8153607"
       inkscape:connector-curvature="0"
       id="path4919"
       d="M 114.20822,182.6897 C 99.405199,180.01714 96.938818,177.32146 96.938818,177.32146"
       style="fill:#e6e6e6;fill-opacity:1;fill-rule:evenodd;stroke:none;stroke-width:2.38000011;stroke-linecap:butt;stroke-linejoin:miter;stroke-miterlimit:4;stroke-dasharray:none;stroke-opacity:1" />
    <path
       inkscape:connector-curvature="0"
       id="path4921"
       d="m 134.73441,185.66606 c 17.18242,-4.49533 17.51934,-7.06418 17.51934,-7.06418"
       style="fill:#e6e6e6;fill-opacity:1;fill-rule:evenodd;stroke:none;stroke-width:0.95866686px;stroke-linecap:butt;stroke-linejoin:miter;stroke-opacity:1" />
    <path
       style="fill:#e6e6e6;fill-opacity:1;fill-rule:evenodd;stroke:none;stroke-width:2.38000011;stroke-linecap:butt;stroke-linejoin:miter;stroke-miterlimit:4;stroke-dasharray:none;stroke-opacity:1"
       d="M 113.99878,184.50259 C 99.195753,181.83003 96.729372,179.13435 96.729372,179.13435"
       id="path4923"
       inkscape:connector-curvature="0"
       inkscape:transform-center-x="1.8153602"
       inkscape:transform-center-y="0.51430231" />
    <path
       sodipodi:nodetypes="csssc"
       inkscape:connector-curvature="0"
       id="path4925"
       d="m 146.42058,184.33778 c 0.90791,11.96248 -5.30402,14.24886 -17.22473,15.17468 -11.92071,0.92576 -25.04432,0.14093 -25.98166,-11.81916 -0.93736,-11.96019 8.2959,-22.25199 20.21429,-23.20733 11.91839,-0.9553 22.01692,7.78694 22.9837,19.74474"
       style="opacity:1;fill:#e6e6e6;fill-opacity:1;stroke:#e6e6e6;stroke-width:3.65777206;stroke-linecap:round;stroke-linejoin:miter;stroke-miterlimit:10;stroke-dasharray:none;stroke-dashoffset:0;stroke-opacity:1" />
    <path
       style="opacity:1;fill:#e6e6e6;fill-opacity:1;stroke:#e6e6e6;stroke-width:3.11082387;stroke-linecap:round;stroke-linejoin:round;stroke-miterlimit:10;stroke-dasharray:none;stroke-dashoffset:0;stroke-opacity:1"
       d="m 114.91414,158.96235 c -0.78837,0.0638 -3.33976,4.77056 -3.67892,5.48748 -0.33916,0.71696 -2.36042,5.67636 -1.91121,6.32954 0.0707,0.10289 0.27235,0.18425 0.5485,0.25131 2.7572,-2.86645 6.30324,-4.98502 10.32627,-5.98959 -0.35709,-0.59911 -0.6557,-1.07581 -0.77764,-1.25304 -0.4492,-0.65322 -3.71863,-4.88945 -4.507,-4.8257 z"
       id="path4927"
       inkscape:connector-curvature="0" />
    <path
       style="opacity:1;fill:#e6e6e6;fill-opacity:1;stroke:#e6e6e6;stroke-width:3.11082387;stroke-linecap:round;stroke-linejoin:round;stroke-miterlimit:10;stroke-dasharray:none;stroke-dashoffset:0;stroke-opacity:1"
       d="m 135.81742,159.08619 c -0.78325,-0.11028 -4.29609,3.92474 -4.78289,4.55026 -0.17265,0.22183 -0.67177,0.92709 -1.22569,1.7663 4.03281,0.97154 7.65853,3.08171 10.48503,6.00023 0.20229,-0.0474 0.3471,-0.10956 0.40965,-0.18996 0.4868,-0.62547 -1.23983,-5.69546 -1.53629,-6.43121 -0.29644,-0.73581 -2.56657,-5.58534 -3.34981,-5.69562 z"
       id="path4929"
       inkscape:connector-curvature="0" />
    <path
       style="opacity:1;fill:none;fill-opacity:1;stroke:#e6e6e6;stroke-width:3.24200034;stroke-linecap:round;stroke-linejoin:round;stroke-miterlimit:4;stroke-dasharray:none;stroke-dashoffset:0;stroke-opacity:1"
       id="path4931"
       sodipodi:type="arc"
       sodipodi:cx="124.69721"
       sodipodi:cy="174.43825"
       sodipodi:rx="32.326309"
       sodipodi:ry="31.441006"
       sodipodi:start="6.2071762"
       sodipodi:end="6.2022369"
       sodipodi:open="true"
       d="m 156.93019,172.05075 a 32.326309,31.441006 0 0 1 -29.73845,33.73475 32.326309,31.441006 0 0 1 -34.721341,-28.88233 32.326309,31.441006 0 0 1 29.652691,-33.80609 32.326309,31.441006 0 0 1 34.79458,28.79885" />
    <rect
       style="opacity:1;fill:#e6e6e6;fill-opacity:1;stroke:#e6e6e6;stroke-width:1.05468953;stroke-linecap:round;stroke-linejoin:round;stroke-miterlimit:4;stroke-dasharray:none;stroke-dashoffset:0;stroke-opacity:1"
       id="rect4933"
       width="34.879498"
       height="6.9128938"
       x="108.3132"
       y="199.65616"
       rx="3.6346564"
       ry="3.4564469" />
    <text
       xml:space="preserve"
       style="font-style:normal;font-weight:normal;font-size:20.45178795px;line-height:125%;font-family:sans-serif;letter-spacing:0px;word-spacing:0px;fill:#e6e6e6;fill-opacity:1;stroke:none;stroke-width:1px;stroke-linecap:butt;stroke-linejoin:miter;stroke-opacity:1"
       x="156.74454"
       y="206.42387"
       id="text5758"
       sodipodi:linespacing="125%"
       transform="scale(1.0042378,0.99578007)"><tspan
         sodipodi:role="line"
         id="tspan5760"
         x="156.74454"
         y="206.42387"
         style="font-style:normal;font-variant:normal;font-weight:normal;font-stretch:normal;font-size:36.42974854px;line-height:125%;font-family:'Roboto Slab';-inkscape-font-specification:'Roboto Slab, Normal';text-align:start;writing-mode:lr-tb;text-anchor:start;fill:#e6e6e6;fill-opacity:1">MOGI</tspan></text>
  </g>
</svg>
