<?xml version="1.0" encoding="UTF-8" standalone="no"?>
<!-- Created with Inkscape (http://www.inkscape.org/) -->

<svg
   xmlns:dc="http://purl.org/dc/elements/1.1/"
   xmlns:cc="http://creativecommons.org/ns#"
   xmlns:rdf="http://www.w3.org/1999/02/22-rdf-syntax-ns#"
   xmlns:svg="http://www.w3.org/2000/svg"
   xmlns="http://www.w3.org/2000/svg"
   xmlns:sodipodi="http://sodipodi.sourceforge.net/DTD/sodipodi-0.dtd"
   xmlns:inkscape="http://www.inkscape.org/namespaces/inkscape"
   width="191.68228mm"
   height="79.131912mm"
   viewBox="0 0 679.1892 280.38867"
   id="svg31688"
   version="1.1"
   inkscape:version="0.91 r13725"
   sodipodi:docname="mogi-logo2.svg">
  <defs
     id="defs31690" />
  <sodipodi:namedview
     id="base"
     pagecolor="#ffffff"
     bordercolor="#666666"
     borderopacity="1.0"
     inkscape:pageopacity="0.0"
     inkscape:pageshadow="2"
     inkscape:zoom="1.4142136"
     inkscape:cx="419.79813"
     inkscape:cy="18.107757"
     inkscape:document-units="px"
     inkscape:current-layer="layer1"
     showgrid="false"
     inkscape:window-width="1863"
     inkscape:window-height="1059"
     inkscape:window-x="57"
     inkscape:window-y="21"
     inkscape:window-maximized="1"
     fit-margin-top="0"
     fit-margin-left="0"
     fit-margin-right="0"
     fit-margin-bottom="0" />
  <metadata
     id="metadata31693">
    <rdf:RDF>
      <cc:Work
         rdf:about="">
        <dc:format>image/svg+xml</dc:format>
        <dc:type
           rdf:resource="http://purl.org/dc/dcmitype/StillImage" />
        <dc:title></dc:title>
      </cc:Work>
    </rdf:RDF>
  </metadata>
  <g
     inkscape:label="Layer 1"
     inkscape:groupmode="layer"
     id="layer1"
     transform="translate(-204.07278,-167.32057)">
    <g
       id="g32287"
       transform="translate(6.3711399,-2.1141414)">
      <g
         transform="translate(14.285729,111.42922)"
         id="g31593">
        <path
           inkscape:connector-curvature="0"
           d="m 468.0127,144.49653 c 0,-19.0964 -29.3118,-33.295 -68.63909,-41.10649 -13.80378,-27.59257 -41.93611,-45.38455 -73.65682,-45.38455 -31.69073,0 -59.74809,17.80698 -73.56187,45.36456 -39.37726,7.80649 -68.73904,22.01009 -68.73904,41.12648 0,21.84516 38.32774,37.28321 86.1512,44.07015 l -23.19456,118.01185 c -0.24489,0.72967 -0.33984,1.48433 -0.4398,2.23399 l -0.15493,0.76966 c -0.02,0.1 0.015,0.18491 0.005,0.28487 -0.005,0.15493 -0.065,0.29487 -0.065,0.4398 0,0.16493 0.06,0.30986 0.07,0.46979 0.02,0.15493 0.025,0.30486 0.06,0.4498 1.37938,17.63705 41.7512,27.16776 79.86403,27.16776 38.16781,0 78.6096,-9.5557 79.87403,-27.24273 0.02,-0.07 0.02,-0.14493 0.03,-0.2249 0.01,-0.20491 0.09,-0.39982 0.09,-0.61472 0,-0.18492 -0.07,-0.35984 -0.08,-0.55475 -0.01,-0.06 0.01,-0.10495 0,-0.16493 l -0.09,-0.4498 c -0.09,-0.89959 -0.2249,-1.7742 -0.51977,-2.62381 L 381.84151,188.58167 c 47.83845,-6.79693 86.17119,-22.23998 86.17119,-44.08514 z M 325.71179,65.50711 c 26.83292,0 50.85709,14.00369 64.18109,36.14872 -20.10094,-3.3435 -42.25596,-5.10271 -64.18109,-5.10271 -21.91513,0 -44.06015,1.75921 -64.15111,5.10271 13.324,-22.15003 37.32819,-36.14872 64.15111,-36.14872 z m 72.04755,242.92059 0.40982,2.09905 c -0.43981,8.57614 -27.89744,20.37083 -72.45737,20.37083 -44.64989,0 -72.14251,-11.83967 -72.46736,-20.4308 l 0.38982,-1.97911 c 3.49843,-8.36623 30.26137,-18.75155 72.07754,-18.75155 41.72121,-0.005 68.44417,10.33534 72.04755,18.69158 z m -2.4489,-12.47438 c -14.68338,-8.97096 -42.71576,-13.71383 -69.59865,-13.71383 -26.90288,0 -54.94525,4.74287 -69.61864,13.73382 l 20.91558,-106.42207 c 15.72291,1.90414 32.27546,2.90869 48.70306,2.90869 16.41761,0 32.96515,-1.00455 48.67808,-2.90369 l 20.92057,106.39708 z m -116.88735,-113.59384 4.48298,-22.84471 c 8.6511,5.97231 25.77839,9.06591 42.80072,9.06591 17.00235,0 34.12463,-3.08861 42.78573,-9.05092 l 4.48798,22.82972 c -14.40851,1.64925 -30.24138,2.59883 -47.27371,2.59883 -17.03233,0 -32.87019,-0.94458 -47.2837,-2.59883 z m 102.01905,-0.93458 -6.2172,-31.62576 c 0,-0.02 -0.02,-0.035 -0.02,-0.055 -1.06452,-11.3399 -24.88879,-17.27222 -48.49316,-17.27222 -23.56439,0 -47.33868,5.91733 -48.48316,17.21224 -0.01,0.045 -0.04,0.075 -0.05,0.10995 l -6.2122,31.62576 c -49.44773,-6.77195 -80.05894,-22.23499 -80.05894,-36.92837 0,-19.5312 54.1656,-40.45178 134.80428,-40.45178 80.63868,0 134.80429,20.92058 134.80429,40.45178 0,14.69838 -30.61122,30.16142 -80.07394,36.93337 z m -91.62373,49.44773 c -0.18992,-0.47979 -0.72967,-0.71468 -1.20946,-0.51977 l -3.82827,1.54431 c -0.47979,0.19491 -0.71468,0.72967 -0.51977,1.20945 0.14494,0.35984 0.49478,0.58474 0.85961,0.58474 0.11495,0 0.2349,-0.03 0.34985,-0.08 l 3.82827,-1.53431 c 0.47979,-0.18991 0.70968,-0.73466 0.51977,-1.20445 z m 7.11179,5.7774 c -0.50477,-0.10496 -0.99455,0.22489 -1.0995,0.72467 l -0.82963,4.04318 c -0.10495,0.50977 0.2249,0.99455 0.72468,1.0945 0.07,0.02 0.12494,0.02 0.18991,0.02 0.43481,0 0.81463,-0.30487 0.90959,-0.73967 l 0.82963,-4.04318 c 0.0999,-0.50977 -0.2199,-0.98955 -0.72468,-1.0995 z m -5.67744,-1.7842 -2.67379,3.14358 c -0.32986,0.37983 -0.28488,0.97456 0.10495,1.29942 0.17492,0.15493 0.38482,0.23489 0.59973,0.23489 0.26488,0 0.51976,-0.11495 0.70968,-0.32985 l 2.67379,-3.14358 c 0.32986,-0.38983 0.28488,-0.97456 -0.10495,-1.30941 -0.38982,-0.33485 -0.97456,-0.28488 -1.30941,0.10495 z m 68.71405,-29.04192 c -1.63926,0.89959 -2.24898,2.96866 -1.34939,4.61792 3.69833,6.74696 4.69788,12.35943 2.97866,16.67249 -1.7792,4.45299 -6.07227,6.42211 -7.3367,6.93188 0,0 0,0 -29.2918,-29.38177 -1.69424,-1.69923 -4.01819,-1.16947 -5.00775,-0.82963 -10.03548,3.44345 -10.03548,3.44345 -10.03548,3.44345 -1.59928,-0.2049 -3.22355,-0.13494 -4.83282,0.18492 -3.04363,-2.39892 -7.19676,-3.59338 -8.49118,-2.81873 -0.28987,0.16493 -0.6547,0.53476 -0.75966,1.30941 -0.18491,1.3294 0.4498,3.64336 1.7842,5.42756 -1.67924,1.82417 -2.8887,4.23809 -3.12359,5.21265 -0.2349,0.95457 0.04,4.89279 0.0999,5.29261 0.015,0.33985 -0.40481,1.63927 -0.62971,2.34395 -0.10496,0.30986 -0.19492,0.61472 -0.27988,0.8796 -0.51976,1.69924 0.91459,3.57339 3.39847,4.46299 0.72468,0.25489 1.15948,0.47979 1.51932,0.6647 0.59973,0.30487 1.04453,0.50977 1.80918,0.50977 0.14494,0 0.29487,0 0.4598,-0.02 1.66924,-0.13494 7.63656,-3.80828 10.92508,-6.657 l 1.95412,1.95412 -7.58659,20.09595 c -0.39482,1.06452 -0.35984,2.214 0.10495,3.24854 0.4648,1.03453 1.31441,1.83417 2.38393,2.23399 2.18902,0.82963 4.65291,-0.29487 5.48253,-2.47888 l 6.2222,-16.49757 13.16407,13.16907 c -0.28987,3.50342 0.05,7.0968 0.98955,10.30036 l -8.27627,8.37622 c -1.63926,1.66925 -1.61927,4.37303 0.05,6.02229 0.82963,0.80964 1.91414,1.20946 2.99365,1.20946 1.09451,0 2.18902,-0.41981 3.02364,-1.26943 l 10.2154,-10.29037 c 0.12994,-0.13494 0.2249,-0.30486 0.25988,-0.49977 0.72468,-4.07816 9.74561,-16.27267 11.16497,-17.80198 1.58429,-0.61473 10.85511,-4.47799 13.94372,-12.11455 2.55885,-6.31715 1.44935,-13.89874 -3.28852,-22.55984 -0.91458,-1.64426 -2.98365,-2.24898 -4.63791,-1.34439 z m -59.95799,14.16362 c -0.17992,0.25488 -0.4598,0.37983 -0.74467,0.37983 -0.18991,0 -0.38482,-0.06 -0.54475,-0.17492 -0.41481,-0.30487 -0.50977,-0.8896 -0.19991,-1.29942 0.07,-0.09 0.04,-0.26488 -0.05,-0.32985 -0.41481,-0.30486 -0.50977,-0.8796 -0.20491,-1.29941 0.30487,-0.40982 0.8896,-0.50977 1.29942,-0.20491 0.4498,0.32985 0.74966,0.81963 0.82962,1.37438 0.085,0.55975 -0.05,1.1095 -0.38482,1.5543 z"
           id="path30398" />
      </g>
      <text
         sodipodi:linespacing="125%"
         id="text32271"
         y="444.53049"
         x="441.30969"
         style="font-style:normal;font-weight:normal;font-size:163.32292175px;line-height:125%;font-family:sans-serif;letter-spacing:0px;word-spacing:0px;fill:#000000;fill-opacity:1;stroke:none;stroke-width:1px;stroke-linecap:butt;stroke-linejoin:miter;stroke-opacity:1"
         xml:space="preserve"><tspan
           style="font-style:normal;font-variant:normal;font-weight:normal;font-stretch:normal;font-size:163.32292175px;line-height:125%;font-family:'Roboto Slab';-inkscape-font-specification:'Roboto Slab, Normal';text-align:start;writing-mode:lr-tb;text-anchor:start"
           y="444.53049"
           x="441.30969"
           id="tspan32273"
           sodipodi:role="line">MOGI</tspan></text>
    </g>
  </g>
</svg>
